# xmcd
# Track frame offsets:
# 150
# 13953
# 27432
# 38735
# 52827
# 65693
# 77302
# 90916
# 104722
# 116476
# 129913
# 142685
#
# Disc length: 2080 seconds
# Revision: 0
# Processed by: cddbd v1.5.2PL0 Copyright (c) Steve Scherf et al.
# Submitted via: VisiTrax 2.10.3.257 - For more info visit www.synapsa.com
#
DISCID=8e081e0c
DTITLE=George Shearing Quintet - You're hearing George Shearing
DYEAR=1950
DGENRE=Blues
TTITLE0=Tenderly
TTITLE1=Strolling
TTITLE2=November sea scape
TTITLE3=September in the rain
TTITLE4=Five o'clock whistle
TTITLE5=I remember you
TTITLE6=Summertime
TTITLE7=Changing with the time
TTITLE8=As long as there's music
TTITLE9=East of the sun
TTITLE10=I'll be around
TTITLE11=For You
EXTD=Da LP
EXTT0=
EXTT1=
EXTT2=
EXTT3=
EXTT4=
EXTT5=
EXTT6=
EXTT7=
EXTT8=
EXTT9=
EXTT10=
EXTT11=
PLAYORDER=
